G04 #@! TF.FileFunction,Paste,Top*
%FSLAX46Y46*%
G04 Gerber Fmt 4.6, Leading zero omitted, Abs format (unit mm)*
G04 Created by KiCad (PCBNEW 4.0.5+dfsg1-4) date Thu Feb 15 14:06:30 2018*
%MOMM*%
%LPD*%
G01*
G04 APERTURE LIST*
%ADD10C,0.100000*%
%ADD11R,2.700020X4.000500*%
%ADD12R,4.000500X2.700020*%
%ADD13R,1.200000X0.750000*%
%ADD14R,0.750000X1.200000*%
%ADD15R,1.501140X1.000760*%
%ADD16R,2.799080X1.501140*%
%ADD17R,1.501140X0.701040*%
%ADD18R,3.048000X1.651000*%
%ADD19R,6.096000X6.096000*%
%ADD20R,0.508000X1.143000*%
%ADD21R,1.200000X0.900000*%
G04 APERTURE END LIST*
D10*
D11*
X148590000Y-87551260D03*
X148590000Y-95328740D03*
D12*
X152321260Y-111760000D03*
X160098740Y-111760000D03*
D13*
X153985000Y-97790000D03*
X152085000Y-97790000D03*
D14*
X165100000Y-102550000D03*
X165100000Y-100650000D03*
D15*
X167754300Y-97226120D03*
X167754300Y-99725480D03*
X167754300Y-102224840D03*
X167754300Y-104724200D03*
X167754300Y-107226100D03*
X167754300Y-109649260D03*
X167754300Y-111351060D03*
X167754300Y-92224860D03*
D16*
X191056260Y-115249960D03*
X191056260Y-87950040D03*
X169555160Y-115249960D03*
X169555160Y-90149680D03*
D15*
X167754300Y-94724220D03*
D17*
X167754300Y-112649000D03*
X167754300Y-113850420D03*
D18*
X155575000Y-89154000D03*
D19*
X161925000Y-91440000D03*
D18*
X155575000Y-93726000D03*
D20*
X153035000Y-106045000D03*
X150495000Y-106045000D03*
X149225000Y-106045000D03*
X147955000Y-106045000D03*
X146685000Y-106045000D03*
X145415000Y-106045000D03*
X144145000Y-106045000D03*
X144145000Y-99695000D03*
X145415000Y-99695000D03*
X146685000Y-99695000D03*
X147955000Y-99695000D03*
X149225000Y-99695000D03*
X150495000Y-99695000D03*
X151765000Y-99695000D03*
X153035000Y-99695000D03*
X151765000Y-106045000D03*
D21*
X161120000Y-107315000D03*
X158920000Y-107315000D03*
M02*
