G04 #@! TF.FileFunction,Soldermask,Top*
%FSLAX46Y46*%
G04 Gerber Fmt 4.6, Leading zero omitted, Abs format (unit mm)*
G04 Created by KiCad (PCBNEW 4.0.5+dfsg1-4) date Thu Feb 15 14:06:30 2018*
%MOMM*%
%LPD*%
G01*
G04 APERTURE LIST*
%ADD10C,0.100000*%
%ADD11R,3.100020X4.400500*%
%ADD12R,4.400500X3.100020*%
%ADD13R,1.600000X1.150000*%
%ADD14R,1.150000X1.600000*%
%ADD15R,1.901140X1.400760*%
%ADD16R,3.199080X1.901140*%
%ADD17R,1.901140X1.101040*%
%ADD18C,1.492200*%
%ADD19C,2.000200*%
%ADD20C,6.400000*%
%ADD21R,2.127200X2.127200*%
%ADD22O,2.127200X2.127200*%
%ADD23R,3.448000X2.051000*%
%ADD24R,6.496000X6.496000*%
%ADD25R,0.908000X1.543000*%
%ADD26R,1.600000X1.300000*%
%ADD27C,2.540000*%
G04 APERTURE END LIST*
D10*
D11*
X148590000Y-87551260D03*
X148590000Y-95328740D03*
D12*
X152321260Y-111760000D03*
X160098740Y-111760000D03*
D13*
X153985000Y-97790000D03*
X152085000Y-97790000D03*
D14*
X165100000Y-102550000D03*
X165100000Y-100650000D03*
D15*
X167754300Y-97226120D03*
X167754300Y-99725480D03*
X167754300Y-102224840D03*
X167754300Y-104724200D03*
X167754300Y-107226100D03*
X167754300Y-109649260D03*
X167754300Y-111351060D03*
X167754300Y-92224860D03*
D16*
X191056260Y-115249960D03*
X191056260Y-87950040D03*
X169555160Y-115249960D03*
X169555160Y-90149680D03*
D15*
X167754300Y-94724220D03*
D17*
X167754300Y-112649000D03*
X167754300Y-113850420D03*
D18*
X170555920Y-113101120D03*
D19*
X170555920Y-92100400D03*
D20*
X142240000Y-90170000D03*
X142240000Y-113030000D03*
D21*
X132080000Y-96520000D03*
D22*
X134620000Y-96520000D03*
X132080000Y-99060000D03*
X134620000Y-99060000D03*
X132080000Y-101600000D03*
X134620000Y-101600000D03*
X132080000Y-104140000D03*
X134620000Y-104140000D03*
X132080000Y-106680000D03*
X134620000Y-106680000D03*
D23*
X155575000Y-89154000D03*
D24*
X161925000Y-91440000D03*
D23*
X155575000Y-93726000D03*
D20*
X160020000Y-101600000D03*
D25*
X153035000Y-106045000D03*
X150495000Y-106045000D03*
X149225000Y-106045000D03*
X147955000Y-106045000D03*
X146685000Y-106045000D03*
X145415000Y-106045000D03*
X144145000Y-106045000D03*
X144145000Y-99695000D03*
X145415000Y-99695000D03*
X146685000Y-99695000D03*
X147955000Y-99695000D03*
X149225000Y-99695000D03*
X150495000Y-99695000D03*
X151765000Y-99695000D03*
X153035000Y-99695000D03*
X151765000Y-106045000D03*
D26*
X161120000Y-107315000D03*
X158920000Y-107315000D03*
D27*
X185420000Y-86360000D03*
X134620000Y-114300000D03*
M02*
