M48
;DRILL file {KiCad 4.0.5+dfsg1-4} date Thu Feb 15 14:06:33 2018
;FORMAT={-:-/ absolute / inch / decimal}
FMAT,2
INCH,TZ
T1C0.016
T2C0.040
T3C0.126
T4C0.043
T5C0.063
%
G90
G05
M72
T1
X5.075Y-4.625
X5.225Y-3.45
X5.45Y-4.1
X5.5Y-4.225
X5.525Y-4.1
X6.025Y-3.6
X6.025Y-3.775
X6.1Y-4.15
X6.4Y-3.375
X6.425Y-4.15
X6.425Y-4.375
X7.28Y-3.77
X7.28Y-4.38
T2
X5.2Y-3.8
X5.2Y-3.9
X5.2Y-4.
X5.2Y-4.1
X5.2Y-4.2
X5.3Y-3.8
X5.3Y-3.9
X5.3Y-4.
X5.3Y-4.1
X5.3Y-4.2
T3
X5.6Y-3.55
X5.6Y-4.45
X6.3Y-4.
T4
X6.7148Y-4.4528
T5
X6.7148Y-3.626
T0
M30
